<svg id="Layer_1" data-name="Layer 1" xmlns="http://www.w3.org/2000/svg" viewBox="0 0 351.28 298.51"><defs><style>.cls-1{fill:#fff;}</style></defs><path class="cls-1" d="M152.78,135.31q.36,0-.18.54l-.73.73a8.44,8.44,0,0,1-1.28,1.1l-.36.18a.56.56,0,0,1-.37.18q-3.11-.18-6.21-.18h-6.2a235.81,235.81,0,0,0-49.74,5.29,279.39,279.39,0,0,0-47.92,15q-1.83,2.56-4.93,6.66a91.18,91.18,0,0,1-6.75,7.94,56.46,56.46,0,0,1-7.39,6.58Q17,182,13.87,182A6.74,6.74,0,0,1,11,181.4a3,3,0,0,1-1.73-2.1,2.41,2.41,0,0,1,.18-2.38,17.16,17.16,0,0,1,5.11-6,72.86,72.86,0,0,1,8.4-5.84q4.56-2.75,9.13-4.93t7.3-3.29q.36-.36.36-.54,10-14.42,18.53-29.66T74.84,95.7a3.34,3.34,0,0,1-.28-.92,3.38,3.38,0,0,0-.27-.91,61.59,61.59,0,0,1-1.37-18,72.27,72.27,0,0,1,3.56-17.8,92.07,92.07,0,0,1,6.21-14.23,97.13,97.13,0,0,1,8.39-13l3.29-3.84q2.19-2.55,4.75-5.2a46.57,46.57,0,0,1,5-4.56q2.46-1.92,4.1-1.92a1.2,1.2,0,0,1,.91.37,1.31,1.31,0,0,1,.37,1v1.19a20.84,20.84,0,0,1-.82,4.29c-.43,1.4-.82,2.76-1.19,4.1q-2.55,8.22-6,16.8T94.1,60.28Q90.17,68.88,86,77.17t-8,16a52.51,52.51,0,0,0,2.28,6.75c.92,2.19,1.92,4.38,3,6.58.11.24,0,.54-.46.91s-.7.61-.82.73l-.92.82c-.48.43-.79.52-.91.27a39.67,39.67,0,0,1-2.55-5.38c-.73-1.89-1.4-3.8-2-5.75q-7.84,14.79-16.06,29.48a295.18,295.18,0,0,1-18.07,28.38A286.74,286.74,0,0,1,90,140.51a232,232,0,0,1,50.56-5.57q3.1,0,6.12.09C148.67,135.09,150.71,135.19,152.78,135.31ZM23.73,176v-.18C24,175.58,24,175.65,23.73,176ZM76.12,72a67.1,67.1,0,0,0-.09,9.4,52.36,52.36,0,0,0,1.36,9.21q6.75-13.5,13-27t11.5-27.75q1.47-3.65,2.65-7.3A44.14,44.14,0,0,0,106.23,21a6.66,6.66,0,0,0,0-2.19.83.83,0,0,0-.91-.55,2,2,0,0,0-.91.18q.36-.18.09-.09a1.27,1.27,0,0,1-.46.09,6.73,6.73,0,0,0-.91.73,5.83,5.83,0,0,0-1.46,1.1,2.25,2.25,0,0,0-.46.27l-.45.46v.18a6.47,6.47,0,0,0-1.28,1.28l-.36.18A88.8,88.8,0,0,0,83.6,45.5,77.8,77.8,0,0,0,76.12,72Z"/><path class="cls-1" d="M84,104.4a20,20,0,0,1,4-2.94L92.23,99c2.29-1.22,4.59-2.35,6.88-3.37s4.57-2,6.82-3Q120.43,86.42,135.1,81t29.68-10.63a17.27,17.27,0,0,0,.54-2.55c.12-.87.28-1.78.49-2.74a5.76,5.76,0,0,1,.64-1.34q.45-.7.69-1.17a2.88,2.88,0,0,1,.56-.65c.29-.28.38-.21.26.21-.23,1.34-.47,2.63-.72,3.85s-.5,2.51-.72,3.85q13.48-4.56,27-9t27.12-8.69l12-3.72q5.92-1.84,12.09-3.56,8.47-2.24,16.66-4.49t16.89-3.79l4.92-.77a23.46,23.46,0,0,1,4.91-.18c.65.06,1.38.15,2.19.28a1.23,1.23,0,0,1,1.18,1.35,8.16,8.16,0,0,1-2.43,4.48q-2.16,2.3-3.81,3.76A77,77,0,0,1,276,51.7q-4.8,2.73-9.7,5.39c-.2.19-.18,0,0-.49s.37-.84.45-1,.37-.65.63-1.05a3.59,3.59,0,0,1,.86-.94Q273,51,277.66,48.33a90.72,90.72,0,0,0,9-5.93c1-.82,1.72-1.42,2.12-1.8a.38.38,0,0,0,.23-.17.42.42,0,0,1,.24-.17,2.28,2.28,0,0,0-2.15-1,17.24,17.24,0,0,0-2.57,0,21.81,21.81,0,0,0-5.4.43q-2.7.55-5.42,1-14.39,2.93-28.33,7T217.45,56q-13.08,4-25.81,8.28t-25.7,8.63q-3.51,17.71-6.82,35.07t-6.81,35.08q-3.23,16.09-6.37,32.16t-6.73,32.28q-.84,4.08-1.67,8.16c-.57,2.72-1.18,5.46-1.85,8.22-.26,1.22-.54,2.49-.84,3.79s-.63,2.59-1,3.85a20.3,20.3,0,0,1-1,2.31c-.55,1.13-1,1.76-1.52,1.91-.23.07-.34-.09-.33-.47a2.22,2.22,0,0,1,.25-1c.33-3,.78-6,1.35-8.92s1.08-5.85,1.57-8.8q2.58-15.7,3.83-32a166.58,166.58,0,0,0-.66-32.38,100.66,100.66,0,0,0-3-14.73,43,43,0,0,0-6.46-13.47,28.09,28.09,0,0,0-7.83-8,31.29,31.29,0,0,0-9.18-4,39.33,39.33,0,0,0-10.31-1.2q-5.43.06-11.21.51c-1.12.09-2.3.2-3.53.33a9.79,9.79,0,0,1-3.52-.25c-.84-.25-1.26-.69-1.27-1.33a4.28,4.28,0,0,1,.54-2,15.84,15.84,0,0,1,1.28-2C83.31,105.25,83.69,104.75,84,104.4Zm11.43,3q16.71-1.55,26.51,4.78t14.82,22.55a94.86,94.86,0,0,1,3.34,19.41,194,194,0,0,1,.35,21.2q-.4,10.72-1.67,21.15T135.91,216q2.76-12.69,5.3-25.14t5.08-25.27q4.53-23,9-45.88t9-46q-22,7.38-43.47,15.75-7.68,3-15.14,6t-14.87,6.9c-1.21.63-2.49,1.31-3.85,2a19.37,19.37,0,0,0-3.7,2.58,2.19,2.19,0,0,0,1.69.81,15.93,15.93,0,0,0,1.82,0,29.1,29.1,0,0,0,4.36-.11C92.57,107.5,94,107.41,95.4,107.36Z"/></svg>