<svg xmlns="http://www.w3.org/2000/svg" xmlns:xlink="http://www.w3.org/1999/xlink" width="1080.96" height="1279.07" viewBox="0 0 1080.96 1279.07"><defs><style>.cls-1{fill:#fff;stroke:#000;stroke-miterlimit:10;stroke-width:6px;}</style></defs><g id="Layer_2" data-name="Layer 2"><g id="Layer_1-2" data-name="Layer 1"><rect class="cls-1" x="3" y="3" width="1074.96" height="1273.07"/><image width="1052" height="1079" transform="translate(13.52 14.75)" xlink:href="Asset%2011.png"/><path d="M190.32,1143h2.78a13.5,13.5,0,0,1,9.49,3.52,11.71,11.71,0,0,1,3.83,9,12.69,12.69,0,0,1-2.14,6.74,10.08,10.08,0,0,1-5,4.48,20.21,20.21,0,0,1,11.14,7.14q4.44,5.47,4.44,13.79a19.42,19.42,0,0,1-6.36,14.44,21.33,21.33,0,0,1-15.4,6.13h-2.78Zm2.78,2.44V1166h.7a9.26,9.26,0,0,0,6.92-3.18,10.31,10.31,0,0,0,3-7.3,9.71,9.71,0,0,0-3-7.1,9.52,9.52,0,0,0-7-3Zm0,22.88v37.5h.7a17.46,17.46,0,0,0,12.92-5.57,18.8,18.8,0,0,0,0-26.41,17.45,17.45,0,0,0-13-5.52Z"/><path d="M226.86,1143v62.73h20.19v2.52H224V1143Z"/><path d="M253,1199.21a33.08,33.08,0,0,1-9.88-23.8,32.16,32.16,0,0,1,10-23.58,33.87,33.87,0,0,1,47.94,0,32.25,32.25,0,0,1,9.92,23.62,33.16,33.16,0,0,1-9.83,23.84,31.6,31.6,0,0,1-23.49,10.14h-1.31Q262.89,1209.39,253,1199.21Zm55.12-23.63a30.18,30.18,0,0,0-9.09-22,30.83,30.83,0,0,0-43.9,0,31.13,31.13,0,0,0,0,44.07,30.68,30.68,0,0,0,43.85,0A30.25,30.25,0,0,0,308.13,1175.58Z"/><path d="M328.7,1199.21a33.12,33.12,0,0,1-9.87-23.8,32.13,32.13,0,0,1,10-23.58,33.87,33.87,0,0,1,47.94,0,32.24,32.24,0,0,1,9.91,23.62,33.11,33.11,0,0,1-9.83,23.84,31.57,31.57,0,0,1-23.49,10.14h-1.3Q338.57,1209.39,328.7,1199.21Zm55.12-23.63a30.18,30.18,0,0,0-9.09-22,30.82,30.82,0,0,0-43.89,0,31.13,31.13,0,0,0,0,44.07,30.68,30.68,0,0,0,43.85,0A30.24,30.24,0,0,0,383.82,1175.58Z"/><path d="M464,1143v65.25h-2.87v-61.86l-30.8,63.08-30.62-63.08v61.86h-2.62V1143h4.18l29.32,60.21L460,1143Z"/><path d="M477.53,1143h2.87v65.25h-2.87Z"/><path d="M541.91,1143h2.53v66.21l-48-59.08v58.12h-2.52V1142l48,59Z"/><path d="M582,1183.37v-2.52h24.45v23.58a31.8,31.8,0,0,1-17.22,4.78h-1a31.56,31.56,0,0,1-16.71-4.7A34.47,34.47,0,0,1,559.36,1192a33.81,33.81,0,0,1,29.45-50.34,34.49,34.49,0,0,1,17.66,4.88v3.22a30.71,30.71,0,0,0-17.66-5.57,31.26,31.26,0,0,0-31.06,31.19,30.24,30.24,0,0,0,9.13,22.06,29.76,29.76,0,0,0,21.93,9.22A34.2,34.2,0,0,0,603.6,1203v-19.66Z"/><path d="M675.9,1209.73,643.45,1143h3.13l29.58,60.47L705.57,1143h2.79Z"/><path d="M717.06,1143h2.87v65.25h-2.87Z"/><path d="M754.25,1146.48a14.56,14.56,0,0,0-7.7-2.09,10.62,10.62,0,0,0-7.26,2.65,9.23,9.23,0,0,0-3,7.27v.43c0,3.66,2,7,6.09,10a61.63,61.63,0,0,0,5.87,3.79c2.17,1.24,4.35,2.58,6.52,4a48.21,48.21,0,0,1,5.92,4.52,19.08,19.08,0,0,1,4.35,5.88,17.24,17.24,0,0,1,1.7,7.65v.87q0,8.26-5.61,13.14a20.43,20.43,0,0,1-13.88,4.87,19.16,19.16,0,0,1-16.88-9v-4.7a19.57,19.57,0,0,0,6.65,8,18.52,18.52,0,0,0,10.92,3.09,16.66,16.66,0,0,0,11.32-4.18,14.05,14.05,0,0,0,4.78-11.13v-.53a14.68,14.68,0,0,0-2.26-8,19.73,19.73,0,0,0-5.66-5.91q-3.39-2.31-7.39-4.83t-7.4-4.7a19.55,19.55,0,0,1-5.65-5.48,12.53,12.53,0,0,1-2.27-7.22v-.61q0-6.09,3.92-9.31a14.69,14.69,0,0,1,9.66-3.22,15.37,15.37,0,0,1,12.7,5.91v4.44A15.1,15.1,0,0,0,754.25,1146.48Z"/><path d="M777.18,1143h2.87v65.25h-2.87Z"/><path d="M800.8,1199.21a33.13,33.13,0,0,1-9.88-23.8,32.16,32.16,0,0,1,10-23.58,33.87,33.87,0,0,1,47.94,0,32.25,32.25,0,0,1,9.92,23.62,33.16,33.16,0,0,1-9.83,23.84,31.6,31.6,0,0,1-23.49,10.14h-1.31Q810.68,1209.39,800.8,1199.21Zm55.12-23.63a30.18,30.18,0,0,0-9.09-22,30.83,30.83,0,0,0-43.9,0,31.16,31.16,0,0,0,0,44.07,30.68,30.68,0,0,0,43.85,0A30.25,30.25,0,0,0,855.92,1175.58Z"/><path d="M917.26,1143h2.52v66.21l-48-59.08v58.12h-2.52V1142l48,59Z"/><path d="M478.07,1245h.44a21.44,21.44,0,0,1-.5,2.44,11.71,11.71,0,0,1-.69,1.85c-.31,0-.74,0-1.28-.07l-2.26,0-1.88,0-.87,0-2.14,0-2.95.07-2.54.1,0-.48c.29-.06.59-.14.9-.22a1.77,1.77,0,0,0,.62-.26.7.7,0,0,0,.23-.35,4,4,0,0,0,.15-.74c.05-.36.11-1,.16-2s.09-2,.13-3.16,0-1.9,0-2.2l-.1-4.5a22.86,22.86,0,0,0-.16-2.83,1.43,1.43,0,0,0-.46-1,3.67,3.67,0,0,0-1.29-.42,1.9,1.9,0,0,1,0-.37h9.08c1,0,2.55,0,4.61-.11-.05.81-.13,1.62-.25,2.43s-.28,1.22-.47,1.22-.36-.07-.36-.21,0-.24.06-.54.06-.48.06-.52c0-.69-.41-1.13-1.24-1.32a13.5,13.5,0,0,0-3-.28,34.8,34.8,0,0,0-4.34.28,37.85,37.85,0,0,0-.26,4c0,.7,0,1.5,0,2.41s0,1.33,0,1.27c.23,0,.92,0,2.08,0,2,0,3.38,0,4.12-.11a3.79,3.79,0,0,0,.86-.17,1.13,1.13,0,0,0,.42-.51,8.4,8.4,0,0,0,.43-1.24l.42,0c0,1,0,1.86,0,2.64s0,1.66,0,2.66h-.5A3.61,3.61,0,0,0,475,1241a1.88,1.88,0,0,0-1.34-.66,30.13,30.13,0,0,0-3.52-.14,18.37,18.37,0,0,0-2.55.14l-.06,2a30.08,30.08,0,0,0,.26,5.68l.61.16c.23,0,.46.1.67.13s.51.07.91.1.89,0,1.48,0a14.47,14.47,0,0,0,3.49-.33,3.88,3.88,0,0,0,1.94-1A6.11,6.11,0,0,0,478.07,1245Z"/><path d="M481,1249.21l-.58,0a16.37,16.37,0,0,0-.78-4.73l.45-.11c.23.71.41,1.22.54,1.54a3,3,0,0,0,.49.83,2.75,2.75,0,0,0,.84.65,13.86,13.86,0,0,0,2.13.86,8.62,8.62,0,0,0,2.59.38,5.52,5.52,0,0,0,2.41-.59c.81-.4,1.21-1.27,1.21-2.62a4.12,4.12,0,0,0-.35-1.76,3.48,3.48,0,0,0-.93-1.19,6.61,6.61,0,0,0-1.33-.8c-.5-.24-1.16-.51-2-.81a16.85,16.85,0,0,1-2.75-1.25,5,5,0,0,1-1.72-1.57,3.9,3.9,0,0,1-.64-2.28,4.6,4.6,0,0,1,1.57-3.56,6.45,6.45,0,0,1,4.49-1.42,13.69,13.69,0,0,1,2.93.31,4.71,4.71,0,0,0,.72.11,1.51,1.51,0,0,0,.85-.28l.11-.06a.93.93,0,0,1,.29.06c0,.22-.06.43-.08.64s-.05.45-.07.71,0,.45,0,.59a2.31,2.31,0,0,1,0,.28c.12,1.15.18,1.77.17,1.87l-.43,0a3.45,3.45,0,0,0-.94-2.27,4.41,4.41,0,0,0-1.89-1.13,7.29,7.29,0,0,0-2-.29c-1.56,0-2.6.4-3.1,1.22a4.41,4.41,0,0,0-.76,2.32,3.15,3.15,0,0,0,.56,1.9,4.15,4.15,0,0,0,1.41,1.19q.84.42,2.37,1a24.54,24.54,0,0,1,2.78,1.25,6,6,0,0,1,1.87,1.66,4.3,4.3,0,0,1,.82,2.68,4.39,4.39,0,0,1-.71,2.45,4.74,4.74,0,0,1-2.12,1.73,8.37,8.37,0,0,1-3.47.64,15.83,15.83,0,0,1-4.15-.58,2.52,2.52,0,0,0-.47-.08C481,1248.72,480.91,1248.88,481,1249.21Z"/><path d="M493.61,1233.94l-.48-.12c.45-1.18.85-2.3,1.2-3.37a3,3,0,0,0,.51.41,1.75,1.75,0,0,0,.61.14q.9.12,4.11.12h7.16l1.73,0,1.67,0a2.58,2.58,0,0,0,.79-.08,1.1,1.1,0,0,0,.43-.33,1.14,1.14,0,0,0,.37.35,17.67,17.67,0,0,0-.78,2.91l-.61.08c.05-.31.08-.73.11-1.27a3,3,0,0,0-1.27-.55,14.41,14.41,0,0,0-2.82-.2c-.94,0-1.57,0-1.87,0a1.09,1.09,0,0,0-.56.11.59.59,0,0,0-.15.41l-.08,1.89c0,.31,0,1.14-.09,2.5,0,.34,0,1.27,0,2.78s0,2.83,0,4c0,1.42,0,2.41,0,3a4,4,0,0,0,.24,1.31,1,1,0,0,0,.6.6,8.69,8.69,0,0,0,1.38.27c.43,0,.64.09.64.18a1,1,0,0,1,0,.33l-.55,0-1.52-.08c-.63-.06-1.14-.09-1.52-.09a19.77,19.77,0,0,0-3,.26l-1,.15a.46.46,0,0,1-.31-.09,1.36,1.36,0,0,1-.19-.37c.13,0,.42-.12.88-.23a9.18,9.18,0,0,0,1.42-.41,1,1,0,0,0,.55-.45,2.52,2.52,0,0,0,.11-.85,12.34,12.34,0,0,1,.12-1.6c0,.06,0-.51,0-1.69s0-2,0-2.51,0-1.09,0-1.78c0-2,0-3.46,0-4.33s-.05-1.54-.09-2a4.83,4.83,0,0,0-.23-1.12c-.81-.08-1.7-.11-2.67-.11s-1.81,0-2.38.09a4.27,4.27,0,0,0-1.3.33,1.61,1.61,0,0,0-.65.51A7.21,7.21,0,0,0,493.61,1233.94Z"/><path d="M509.46,1247.87c0-.13.12-.27.36-.43a2.72,2.72,0,0,0,1.08-1.16.48.48,0,0,1,.39-.23.42.42,0,0,1,.37.23.85.85,0,0,1,.12.32,3.12,3.12,0,0,0,.92.92,1,1,0,0,1,.3.18.46.46,0,0,1,0,.23.4.4,0,0,1-.24.35,2.71,2.71,0,0,0-1.11,1.1c-.13.22-.27.33-.41.33a.55.55,0,0,1-.44-.3,3.59,3.59,0,0,0-.45-.68,2.33,2.33,0,0,0-.63-.45,3,3,0,0,1-.26-.19S509.46,1248,509.46,1247.87Z"/><path d="M530.42,1249.15H523.7a14.82,14.82,0,0,0-2,.15,3.59,3.59,0,0,0-.17-.32l2.05-2.12q7.23-7.29,7.22-10.79a3.27,3.27,0,0,0-1-2.54,3.65,3.65,0,0,0-2.54-.93,4.83,4.83,0,0,0-3.69,1.59l-.52-.42a15.38,15.38,0,0,1,1.35-1.34,6.36,6.36,0,0,1,1.66-1,5.43,5.43,0,0,1,2.24-.44,5,5,0,0,1,2.3.53,4.05,4.05,0,0,1,1.65,1.53,4.31,4.31,0,0,1,.6,2.28,5.81,5.81,0,0,1-.55,2.5,11,11,0,0,1-1.59,2.45c-.69.85-1.61,1.86-2.75,3l-2.36,2.49a2.42,2.42,0,0,1-.24.28c-.13.14-.27.28-.4.43l-.78.84,4.46,0c1.2,0,2,0,2.44-.05a3.76,3.76,0,0,0,1.21-.29,2.81,2.81,0,0,0,1-.77,10.18,10.18,0,0,0,1-1.6l.53.28-1.6,2.93q-.13.22-.33.6c-.13.25-.26.5-.37.73s-.24.46-.35.67l-.42,0a.92.92,0,0,0-.46-.56A2.39,2.39,0,0,0,530.42,1249.15Z"/><path d="M536.17,1240.49a12.56,12.56,0,0,1,1-5.15,7.64,7.64,0,0,1,2.45-3.22,5.22,5.22,0,0,1,3.12-1.09,4.87,4.87,0,0,1,2.54.69,6.08,6.08,0,0,1,2,1.92,9.67,9.67,0,0,1,1.24,2.86,14.65,14.65,0,0,1-.36,8.27,7.77,7.77,0,0,1-2.28,3.34,5.31,5.31,0,0,1-3.46,1.21,4.82,4.82,0,0,1-3.31-1.26,7.79,7.79,0,0,1-2.14-3.29A12.69,12.69,0,0,1,536.17,1240.49Zm2.12-1.32c0,.62,0,1.41.12,2.38a17.86,17.86,0,0,0,.56,3.1,7.7,7.7,0,0,0,1.36,2.8,3,3,0,0,0,2.42,1.15,2.91,2.91,0,0,0,2.3-1,6.34,6.34,0,0,0,1.31-2.69,14.7,14.7,0,0,0,.4-3.54,33.86,33.86,0,0,0-.23-3.43,12,12,0,0,0-1-3.81,6,6,0,0,0-.63-1.06,3.78,3.78,0,0,0-1-.9,2.79,2.79,0,0,0-1.45-.39,3.38,3.38,0,0,0-1.28.27,3.68,3.68,0,0,0-1.34,1.09,6.49,6.49,0,0,0-1.08,2.3A14.19,14.19,0,0,0,538.29,1239.17Z"/><path d="M558.85,1249.15h-6.72a14.7,14.7,0,0,0-2,.15,3.59,3.59,0,0,0-.17-.32l2-2.12q7.22-7.29,7.22-10.79a3.24,3.24,0,0,0-1-2.54,3.63,3.63,0,0,0-2.54-.93,4.81,4.81,0,0,0-3.68,1.59l-.52-.42a15.38,15.38,0,0,1,1.35-1.34,6.36,6.36,0,0,1,1.66-1,5.43,5.43,0,0,1,2.24-.44,4.89,4.89,0,0,1,2.29.53,3.93,3.93,0,0,1,1.65,1.53,4.31,4.31,0,0,1,.6,2.28,6,6,0,0,1-.54,2.5,11,11,0,0,1-1.59,2.45c-.7.85-1.62,1.86-2.76,3l-2.35,2.49a2.42,2.42,0,0,1-.24.28c-.14.14-.27.28-.4.43l-.78.84,4.46,0c1.2,0,2,0,2.44-.05a3.76,3.76,0,0,0,1.21-.29,2.81,2.81,0,0,0,1-.77,11,11,0,0,0,1-1.6l.53.28-1.6,2.93q-.13.22-.33.6l-.38.73c-.11.24-.23.46-.34.67l-.43,0a.86.86,0,0,0-.46-.56A2.3,2.3,0,0,0,558.85,1249.15Z"/><path d="M566.89,1249.3l0-.61a5,5,0,0,0,1.74-.27,1.47,1.47,0,0,0,.95-1,12.7,12.7,0,0,0,.29-2.54c.07-1.29.12-2.61.14-4s0-2.65,0-3.89a28.38,28.38,0,0,0-.14-3.87,1,1,0,0,0-.86-.72,12,12,0,0,0-2.07-.14l0-.55c1.35,0,2.48-.08,3.38-.16s1.64-.16,2.19-.25,1.2-.22,1.92-.37l.15.55-1,.23a1.58,1.58,0,0,0-1.09.61,3.61,3.61,0,0,0-.35,1.36c-.1.94-.16,1.87-.21,2.79s-.06,1.8-.07,2.63,0,1.88,0,3.14q0,5.26.47,5.82a1.74,1.74,0,0,0,.75.36,14,14,0,0,0,2.07.28l0,.58q-2-.12-2.82-.12C570.16,1249.15,568.37,1249.2,566.89,1249.3Z"/></g></g></svg>