<svg id="Layer_1" data-name="Layer 1" xmlns="http://www.w3.org/2000/svg" viewBox="0 0 707 391.89"><defs><style>.cls-1{fill:#fff;}</style></defs><path class="cls-1" d="M152.78,129.69c.24,0,.18.18-.18.55s-.61.61-.73.73a8.29,8.29,0,0,1-1.28,1.09l-.36.19a.56.56,0,0,1-.37.18q-3.11-.18-6.21-.18h-6.2a235.16,235.16,0,0,0-49.74,5.29,278.51,278.51,0,0,0-47.92,15q-1.83,2.55-4.93,6.66a92.69,92.69,0,0,1-6.75,7.94,57.09,57.09,0,0,1-7.39,6.57c-2.5,1.82-4.78,2.74-6.85,2.74a6.75,6.75,0,0,1-2.83-.64,3,3,0,0,1-1.73-2.1,2.39,2.39,0,0,1,.18-2.37,17.09,17.09,0,0,1,5.11-6,74.13,74.13,0,0,1,8.4-5.84q4.56-2.73,9.13-4.93t7.3-3.28c.24-.24.36-.43.36-.55q10-14.42,18.53-29.66T74.84,90.08a3.26,3.26,0,0,1-.28-.91,3.35,3.35,0,0,0-.27-.92,61.56,61.56,0,0,1-1.37-18,72.19,72.19,0,0,1,3.56-17.79,92.19,92.19,0,0,1,6.21-14.24,98.43,98.43,0,0,1,8.39-13l3.29-3.83q2.19-2.57,4.75-5.2a46.72,46.72,0,0,1,5-4.57q2.46-1.92,4.1-1.92a1.24,1.24,0,0,1,.91.37,1.34,1.34,0,0,1,.37,1v1.19a20.84,20.84,0,0,1-.82,4.29c-.43,1.4-.82,2.77-1.19,4.11q-2.55,8.21-6,16.79T94.1,54.67Q90.17,63.25,86,71.55t-8,16a52.13,52.13,0,0,0,2.28,6.76c.92,2.19,1.92,4.38,3,6.57.11.24,0,.55-.46.91s-.7.61-.82.73-.43.4-.92.82-.79.52-.91.28a40.37,40.37,0,0,1-2.55-5.39q-1.1-2.82-2-5.75-7.84,14.79-16.06,29.48a295.33,295.33,0,0,1-18.07,28.39A286.78,286.78,0,0,1,90,134.89a232,232,0,0,1,50.56-5.57c2.07,0,4.11,0,6.12.1S150.71,129.57,152.78,129.69Zm-129,40.7v-.18Q24.09,169.85,23.73,170.39Zm52.39-104a67.13,67.13,0,0,0-.09,9.4A52.47,52.47,0,0,0,77.39,85q6.75-13.52,13-27t11.5-27.74c1-2.43,1.86-4.87,2.65-7.3a44.25,44.25,0,0,0,1.73-7.49,6.66,6.66,0,0,0,0-2.19.84.84,0,0,0-.91-.54,2,2,0,0,0-.91.18q.36-.18.09-.09a1.54,1.54,0,0,1-.46.09,6,6,0,0,0-.91.73,5.77,5.77,0,0,0-1.46,1.09,2.67,2.67,0,0,0-.46.28l-.45.45v.19a6.42,6.42,0,0,0-1.28,1.27l-.36.19A88.74,88.74,0,0,0,83.6,39.88,77.87,77.87,0,0,0,76.12,66.35Z"/><path class="cls-1" d="M194,126.77q.36,0,0,.36a5.25,5.25,0,0,1-2,2,1.47,1.47,0,0,1-.91.55l-4.38-.18-12.59-.73q-6.21-.37-12.6-.37a1.66,1.66,0,0,1-.09,1.19,7,7,0,0,1-.64,1.18,18.45,18.45,0,0,1-3.1,3.84q-2.19,2.19-4.75,4.29a32.07,32.07,0,0,1-5.11,3.47,9.36,9.36,0,0,1-4,1.36,1.27,1.27,0,0,1-.92-.36.87.87,0,0,1-.27-.82,4.27,4.27,0,0,0,.09-.82,21.79,21.79,0,0,1,3.83-7.12,32.21,32.21,0,0,1,5.48-5.84,3.59,3.59,0,0,1-1.46-.19,2.7,2.7,0,0,0-.55.1c-.24.06-.36,0-.36-.1,0-.48.45-1.06,1.37-1.73a18.84,18.84,0,0,1,1.73-1.19,1.67,1.67,0,0,1,1.19-.27,8.44,8.44,0,0,0,1.18.09,4.82,4.82,0,0,1,1.46-.18,18.18,18.18,0,0,0,1.92-.91,18.35,18.35,0,0,1,1.92-.92.17.17,0,0,1,.18.19c.12.24-.06.54-.55.91a9.16,9.16,0,0,1-1.09.73.73.73,0,0,0,.54.18h3.38c1.16,0,2.34.06,3.56.18q6.93.19,13.78.46T194,126.77Zm-35.77,4.93a.8.8,0,0,0-.19-1.1,2.75,2.75,0,0,0-2.19-1.37l-2.74-.45q-.36.36-.54.36l-.37.37c-.49.48-.79.73-.91.73l-.18.18a4,4,0,0,1-.73.91l-.55.55-.18.37a20.37,20.37,0,0,0-3.29,5.84,3.28,3.28,0,0,0-.55,2c0,.49.31.73.92.73h.54a.72.72,0,0,0,.37-.09.8.8,0,0,1,.36-.09.54.54,0,0,1,.37-.18,3.12,3.12,0,0,1,1-.46,1.56,1.56,0,0,0,.82-.45l.73-.37,1.1-.55a4.27,4.27,0,0,1,.91-.73l.18-.18c.12,0,.31-.12.55-.36l.37-.37a3.11,3.11,0,0,1,.54-.46l.55-.27.73-.73.37-.36,1.09-1.1.19-.36A3.79,3.79,0,0,0,158.26,131.7Z"/><path class="cls-1" d="M188.92,140.46a.52.52,0,0,0,.36.18h.19a8.59,8.59,0,0,0,3.1-.73c1.22-.48,2.46-1,3.74-1.64a34.51,34.51,0,0,0,3.65-2c1.16-.73,2.1-1.28,2.83-1.64l.73-.37.19-.18a3.92,3.92,0,0,0,1.27-.73c1.71-1,3.35-1.92,4.93-2.83s3.22-1.79,4.93-2.65q2-1.1,4.84-2.46a12.08,12.08,0,0,1,5.2-1.37,3.42,3.42,0,0,1,1.73.46,1.79,1.79,0,0,1,.82,1.73,7.58,7.58,0,0,1-.54,2.56,17.19,17.19,0,0,0-.82,2.83,5.77,5.77,0,0,0,0,2.55A2.56,2.56,0,0,0,228,135.9a6.37,6.37,0,0,0,2.56.36,27.56,27.56,0,0,0,6.93-1,79.78,79.78,0,0,0,7.76-2.47c2.62-1,5.14-2,7.58-3.1s4.56-2.07,6.39-2.92q.54-.36.27.18a2.89,2.89,0,0,1-.46.73,22,22,0,0,1-5.84,3.65,89.74,89.74,0,0,1-9.13,3.74q-4.92,1.74-9.49,2.93a30,30,0,0,1-6.75,1.18,10.26,10.26,0,0,1-2.28-.27,4.32,4.32,0,0,1-2.1-1.19,2.89,2.89,0,0,1-.55-2.65c.24-1,.49-2,.73-3a12.68,12.68,0,0,0,.64-2.37,2,2,0,0,0-2.1-2.74,9.4,9.4,0,0,0-4.2.91h-.36v.19l-1.1.36a5.1,5.1,0,0,1-1,.55c-.31.12-.64.24-1,.36-1.21.61-2.4,1.25-3.55,1.92s-2.35,1.37-3.56,2.1a10.9,10.9,0,0,1-1.28.55c-.25.24-.43.36-.55.36l-.36.37-2.56,1.46-2.56,1.46q-2.19,1.28-4.29,2.46a32.76,32.76,0,0,1-4.47,2.1c-.61.25-1.16.46-1.64.64s-1,.4-1.64.64a2,2,0,0,0-.64.09,2.06,2.06,0,0,1-.64.09,1.23,1.23,0,0,1-.91-.36,1.32,1.32,0,0,1-1-1.74,14.38,14.38,0,0,1,.64-2.28,58.89,58.89,0,0,1,3.38-6.48,70.82,70.82,0,0,1,4.11-6.11,3.55,3.55,0,0,1,.91-1.19,12.94,12.94,0,0,1,1.09-.82c0-.37.25-.55.73-.55.12,0,.19.12.19.37a30.5,30.5,0,0,0-2.1,2.92q-1.2,1.81-2.38,3.74a28.11,28.11,0,0,0-2,3.83,22.47,22.47,0,0,0-1.19,3.38,2,2,0,0,0,.18,1.82C188.37,140.34,188.55,140.46,188.92,140.46Z"/><path class="cls-1" d="M285.66,127.32a24.78,24.78,0,0,1-5.38,4.29q-4.29,2.82-9.31,5.65t-9.77,4.93q-4.74,2.1-6.93,2.1a3.06,3.06,0,0,1-1.65-.36,2.08,2.08,0,0,1-1.46-2.1,8.27,8.27,0,0,1,.37-2.65,22.28,22.28,0,0,1,1.28-3.56q.9-2.1,2-4.29a25.29,25.29,0,0,1,2.47-4,16.35,16.35,0,0,1,2.46-2.74,3.1,3.1,0,0,1,.73-.46c.37-.18.43-.09.18.28a2.23,2.23,0,0,0-.54.91,2.44,2.44,0,0,1-.55.91q-1.47,2.37-3.1,5.57a18.46,18.46,0,0,0-2,5.75,6.08,6.08,0,0,0-.18,1.46,3.28,3.28,0,0,0,.36,1.46,3.14,3.14,0,0,0,1.64.91,14.62,14.62,0,0,0,3.47-.36,27,27,0,0,0,3.29-1.1,45.93,45.93,0,0,0,4.38-2.1q2.19-1.19,4.38-2.28l.73-.55q.18,0,.18-.09t.18-.09q6.21-3.65,12.42-7.85l.36-.18q.18-.18.18,0v.36Zm-21.17-11.5a7.29,7.29,0,0,1-1.19,1.27,12.33,12.33,0,0,1-1.37,1.1q-.18,0-.18.09t-.18.09V118l2.55-4.38a5.32,5.32,0,0,1,1-1.1c.42-.36.75-.67,1-.91s.21-.18.27-.18.21-.12.46-.37a.16.16,0,0,1,.18.18v.19a20.59,20.59,0,0,0-1.27,2.19A22.6,22.6,0,0,1,264.49,115.82Z"/><path class="cls-1" d="M314.32,126.77q.18,0,.18.36a10.1,10.1,0,0,1-1.46,1.56c-.73.67-1.22,1-1.46,1h-2.19a64.71,64.71,0,0,0-10.86.91,49.67,49.67,0,0,0-10.68,3.11.52.52,0,0,1,.18.36,6.12,6.12,0,0,1,.55,4.75,9.78,9.78,0,0,1-2.37,3.74,29.7,29.7,0,0,1-4.11,3.56,23.75,23.75,0,0,1-4.66,2.64,10.71,10.71,0,0,1-4,1c-.73,0-1.16-.18-1.28-.55a.84.84,0,0,1-.09-.64,2,2,0,0,0,.09-.64,13,13,0,0,1,2-3.56,47,47,0,0,1,3.1-3.65,44.83,44.83,0,0,1,3.47-3.28c1.22-1,2.25-1.92,3.1-2.65-.48-.73-1-1.46-1.55-2.19a19,19,0,0,0-1.73-2,2.73,2.73,0,0,1-1.28-1.46,2.33,2.33,0,0,1,.91-2,11,11,0,0,1,2.56-2.19A6.13,6.13,0,0,1,286,124a1.5,1.5,0,0,1,.92.18.83.83,0,0,1-.19.92,4.08,4.08,0,0,1-1,1.27c-.43.37-.88.73-1.37,1.1l-.55.55a15.69,15.69,0,0,1,3.47,4.56A41,41,0,0,1,300.44,128,82.33,82.33,0,0,1,314.32,126.77ZM284.2,143.56a6.26,6.26,0,0,0,1.18-1.91c.19-.55.34-1.07.46-1.56a6,6,0,0,0-.46-2.37c-.3-.73-.63-1.46-1-2.19a17.93,17.93,0,0,0-1.64,1.1l-1.46,1.09-.73.55a3,3,0,0,0-.37.45q-.18.28,0-.09l-.36.37q0,.18-.09.18c-.07,0-.09.06-.09.18a3.49,3.49,0,0,0-.73.92,9.61,9.61,0,0,0-1.28,1.46c-.13.12-.19.21-.19.27s-.06.15-.18.27a11.72,11.72,0,0,0-1.09,1.56c-.25.42-.49.82-.73,1.18a1.65,1.65,0,0,0-.19,1.28c.12.37.49.55,1.1.55a6.84,6.84,0,0,0,2.74-.55,21.91,21.91,0,0,0,4.56-2.19l.37-.37h.18Zm-2.56-6.2.19-.19A.17.17,0,0,1,281.64,137.36Zm1.65-10c-.13,0-.31-.12-.55-.37h.91Zm1.46-.92h-.19C284.44,126.53,284.5,126.53,284.75,126.4Z"/><path class="cls-1" d="M358.31,127.13v.19a5.29,5.29,0,0,1-1.37,1.55,5.67,5.67,0,0,1-1.55,1q-5.85,2-11.41,3.84t-11.41,3.65q-5.47,1.63-11,3.19A97.55,97.55,0,0,1,310.12,143c-.85.13-1.67.22-2.46.28s-1.68.09-2.65.09q-.92,0-1.92-.09a4.51,4.51,0,0,1-1.91-.64,1.83,1.83,0,0,1-.64-2.19,12.51,12.51,0,0,1,1-2.19,10.36,10.36,0,0,1,2.19-3.1.39.39,0,0,1,.09-.28.37.37,0,0,0,.09-.27.91.91,0,0,0,.46-.37,1,1,0,0,1,.46-.36c.73-.85,1.67-1.86,2.83-3a47.26,47.26,0,0,1,3.74-3.38,46.67,46.67,0,0,1,3.92-2.92,11.21,11.21,0,0,1,3.38-1.64,1.17,1.17,0,0,0,.55-.1c.12-.06.3,0,.54.1s.55.79.55,1.64a7.73,7.73,0,0,1-1.28,4.2,17.56,17.56,0,0,1-3.1,3.65,14,14,0,0,1-4,2.55,10.89,10.89,0,0,1-4.19.92,10,10,0,0,1-1.56-.1c-.42-.06-.94-.15-1.55-.27a8.41,8.41,0,0,0-.64,1.19,3,3,0,0,0-.27,1.18l-.18.37v.36a2.24,2.24,0,0,0,1.64,1.65,5.61,5.61,0,0,0,1.64.18,2.61,2.61,0,0,0,1.1.18,22.65,22.65,0,0,0,4-.36l4-.73a46.45,46.45,0,0,0,5-1q2.46-.63,5-1.37,8.22-2.19,16.15-4.74T358.31,127.13Zm-50.93,4.93c0,.12-.12.31-.36.55.6.12,1.21.21,1.82.27a16,16,0,0,0,1.83.09,10.15,10.15,0,0,0,4.56-.91l.18-.18.19-.37.18-.18.18-.18a4.3,4.3,0,0,0,.55-1.19,4,4,0,0,1,.55-1.18,6.92,6.92,0,0,0,.27-1.19,2.36,2.36,0,0,0-.27-1.37c0-.24-.19-.42-.55-.55h-.18a3.13,3.13,0,0,0-.92.19h-.18a1.08,1.08,0,0,1-.73.36,2.17,2.17,0,0,1-.55.37l-.91.73a10.34,10.34,0,0,0-1.37.82,9.54,9.54,0,0,0-1.19,1c-.24.25-.39.37-.45.37a.52.52,0,0,0-.28.18c-.36.36-.76.73-1.18,1.09A8.59,8.59,0,0,0,307.38,132.06Zm.73-.55a.37.37,0,0,0-.27.1C307.77,131.67,307.87,131.64,308.11,131.51Z"/><path class="cls-1" d="M206,197.79a20.4,20.4,0,0,1,4-2.95q2.19-1.25,4.3-2.48c2.29-1.21,4.59-2.34,6.88-3.37s4.57-2,6.82-3q14.5-6.21,29.17-11.62t29.68-10.62a17.13,17.13,0,0,0,.54-2.56c.12-.86.28-1.77.49-2.73a5.58,5.58,0,0,1,.64-1.34q.45-.72.69-1.17a3.1,3.1,0,0,1,.56-.66c.29-.28.38-.21.25.21-.22,1.35-.46,2.63-.71,3.86s-.5,2.51-.72,3.85q13.49-4.56,27-9t27.12-8.68l12-3.73q5.93-1.83,12.09-3.55,8.48-2.25,16.66-4.49t16.88-3.8l4.93-.76a22.81,22.81,0,0,1,4.91-.18q1,.08,2.19.27a1.24,1.24,0,0,1,1.18,1.36,8.19,8.19,0,0,1-2.43,4.48q-2.16,2.3-3.81,3.75a76,76,0,0,1-9.25,6.22q-4.8,2.73-9.7,5.39c-.2.19-.18,0,0-.49s.37-.85.45-1c.16-.3.37-.66.63-1.06a3.53,3.53,0,0,1,.86-.93q4.72-2.61,9.35-5.29a90.61,90.61,0,0,0,9-5.92c1-.83,1.72-1.43,2.12-1.81a.35.35,0,0,0,.23-.17.37.37,0,0,1,.24-.16,2.28,2.28,0,0,0-2.15-1.06,20.51,20.51,0,0,0-2.57,0,22.31,22.31,0,0,0-5.4.44c-1.8.36-3.61.7-5.42,1q-14.39,2.94-28.33,7t-27.89,8.35q-13.08,4-25.81,8.29t-25.7,8.63q-3.51,17.7-6.82,35.07t-6.81,35.07q-3.24,16.09-6.37,32.17t-6.73,32.27L259.53,309c-.56,2.72-1.17,5.45-1.84,8.21-.26,1.23-.54,2.49-.84,3.79s-.63,2.59-1,3.85a21,21,0,0,1-1,2.32c-.55,1.12-1,1.76-1.52,1.9-.23.07-.34-.08-.33-.47a2.18,2.18,0,0,1,.25-1q.5-4.56,1.35-8.92c.55-2.92,1.08-5.85,1.57-8.8q2.58-15.7,3.83-32.05a166.6,166.6,0,0,0-.66-32.38,100.66,100.66,0,0,0-3-14.73,43.35,43.35,0,0,0-6.46-13.47,27.92,27.92,0,0,0-7.83-8,31.32,31.32,0,0,0-9.18-4,39.75,39.75,0,0,0-10.31-1.2q-5.43.06-11.21.51c-1.12.09-2.3.21-3.53.33a9.57,9.57,0,0,1-3.52-.25c-.84-.24-1.26-.69-1.27-1.32a4.22,4.22,0,0,1,.54-2,15.93,15.93,0,0,1,1.28-2C205.31,198.63,205.69,198.13,206,197.79Zm11.43,3q16.71-1.55,26.51,4.78t14.82,22.54a94.43,94.43,0,0,1,3.33,19.41,191.63,191.63,0,0,1,.36,21.2q-.41,10.74-1.67,21.16t-2.84,19.51q2.76-12.71,5.3-25.15t5.08-25.26q4.53-23,9-45.88t9-46.06q-22,7.38-43.47,15.76-7.68,3-15.14,6t-14.87,6.9c-1.21.63-2.49,1.32-3.86,2a20.58,20.58,0,0,0-3.69,2.58,2.23,2.23,0,0,0,1.69.82c.71,0,1.32,0,1.82,0a30.49,30.49,0,0,0,4.36-.11C214.57,200.89,216,200.79,217.4,200.75Z"/><path class="cls-1" d="M307.06,257.63l2.2-.3a5.63,5.63,0,0,1,2.13.1,4.28,4.28,0,0,1,1.52.58,1.43,1.43,0,0,1,.63,1.43,2.29,2.29,0,0,1-.21,1.79,35.18,35.18,0,0,0-.48,4.63,18,18,0,0,0,.51,4.72,8,8,0,0,0,.44,1.11,1.41,1.41,0,0,0,.91.77,1.47,1.47,0,0,0,.92-.1,11.7,11.7,0,0,0,3.33-1.89,49,49,0,0,0,3.94-3.32c1.34-1.25,2.61-2.47,3.83-3.67s2.17-2.17,2.84-2.89l2.18-2.2,6.36-7.23q3.11-3.54,6.36-7.22l.12-.23.35-.11a.23.23,0,0,1,.11.35.52.52,0,0,1-.29.28,18.09,18.09,0,0,1-2.36,3.5q-2.06,2.64-4.92,6t-6.42,7.05q-3.54,3.68-6.84,6.89t-6.12,5.53a15.22,15.22,0,0,1-4.39,2.79,1.62,1.62,0,0,1-2.29-1.2,4.15,4.15,0,0,1-.51-1.66c-.05-.55-.1-1.14-.16-1.76a27.71,27.71,0,0,1,.43-6.63.36.36,0,0,1,0-.29.4.4,0,0,0,0-.29,4.19,4.19,0,0,0,.2-1.21,1.4,1.4,0,0,0-.64-1.42,4,4,0,0,0-1.51-.58,22.87,22.87,0,0,0-4.69.3l-2.28.33a13.44,13.44,0,0,1-2.35.15c-1.5.08-2.33-.55-2.5-1.9a6.42,6.42,0,0,1,.46-2.54,23.94,23.94,0,0,1,1.4-3.2,15.91,15.91,0,0,1,1.82-2.76,4.3,4.3,0,0,1,1.67-1.38c.24-.07.37-.05.41.07a.36.36,0,0,1,.33.47,1.7,1.7,0,0,0,0,.75,6.47,6.47,0,0,1-.62,3.54A20,20,0,0,1,301,258a2,2,0,0,0,.75.25,5,5,0,0,1,.69.07,9.2,9.2,0,0,0,2.32-.24C305.57,257.87,306.32,257.73,307.06,257.63Z"/><path class="cls-1" d="M403.54,224.88a3.18,3.18,0,0,1,.56-.65c.3-.29.38-.22.26.2a12.92,12.92,0,0,1-2.43,4.19,67.65,67.65,0,0,1-4.86,5.62q-2.74,2.85-5.33,5.28t-3.83,3.38a40.94,40.94,0,0,1-4.36,2.88,22.68,22.68,0,0,1-4.63,2,12.83,12.83,0,0,1-5.56.57,13.62,13.62,0,0,1-5.16-1.84c-.49-.35-1-.68-1.45-1s-.94-.57-1.4-.81a11.58,11.58,0,0,0-3.73-.95l-.72,1.37c0,.12-.14.46-.54,1s-.63.74-.7.51a4.29,4.29,0,0,0-1-.83,4.52,4.52,0,0,0-1.58-1.42,14.66,14.66,0,0,0-3.48,2c-1.08.84-2.17,1.75-3.26,2.73l-.25.46c-.39.37-.7.69-.94,1s-.49.57-.77.9l-.24.46-.59.57a13.62,13.62,0,0,1-.95,1.25,7.21,7.21,0,0,0-.78,1.19,6.89,6.89,0,0,1-.77,1.2c-.44.64-.91,1.3-1.4,2A15.09,15.09,0,0,1,342,260a5.92,5.92,0,0,0-.5.54,1.09,1.09,0,0,1-.56.36c-.35.11-.55.05-.63-.18a3.17,3.17,0,0,1-.55-1.17,13.17,13.17,0,0,1,.12-5.77,31.14,31.14,0,0,1,2.13-6.39,22.73,22.73,0,0,1,3.61-5.61,10.19,10.19,0,0,1,4.46-3.2,7.55,7.55,0,0,1,4.79.05,15.54,15.54,0,0,1,4.34,2.28,12.51,12.51,0,0,1,5.15-.64,8.26,8.26,0,0,1,3.19,1c.93.54,1.94,1.15,3,1.83a12.53,12.53,0,0,0,10.48,1.15,23.29,23.29,0,0,0,6.21-3.07,53.17,53.17,0,0,0,5.91-4.7,64.66,64.66,0,0,0,5.28-5.46c1.64-1.9,3.15-3.71,4.53-5.41l.42-.51A.16.16,0,0,1,403.54,224.88ZM352.7,245.21a11.33,11.33,0,0,1,2.41-2.09,9.27,9.27,0,0,0-7.19-1,7.63,7.63,0,0,0-2.28,1.28l-.18.06c-.11,0-.16.08-.14.14s0,.11-.15.14l-.47.34c-.68,1.1-1.08,1.76-1.2,2l-.3.57c0,.12,0,.19,0,.2s-.07.09,0,.21a23.75,23.75,0,0,0-1.18,4.85,10.76,10.76,0,0,0,.11,4.65c.25.43.52.67.79.71l.35-.11a4.21,4.21,0,0,0,.71-.79,2.93,2.93,0,0,1,.53-.74L345,255q1.84-2.67,3.66-5.14A42.26,42.26,0,0,1,352.7,245.21Z"/><path class="cls-1" d="M421.08,117.4c.51-.41.76-.42.75,0a8,8,0,0,1-.11,1.18,9.64,9.64,0,0,1-.29,1.24q-.46,2.82-1,5.75c-.34,2-.72,3.95-1.11,6l-3.5,18.29-9.5,47.08q-2.15,11-4.42,21.81t-4.42,21.82c-.43,2.3-.87,4.6-1.3,6.9s-.87,4.6-1.31,6.9c1-2.86,2.13-5.69,3.3-8.47s2.43-5.53,3.76-8.24c-.07-.23.06-.62.4-1.17s.68-1.07,1-1.57c.8-1.52,1.69-3.1,2.64-4.73a42.41,42.41,0,0,1,3.22-4.73,28.44,28.44,0,0,1,3.9-4.07,13.33,13.33,0,0,1,4.73-2.61,11.55,11.55,0,0,1,4.46-.43,6.46,6.46,0,0,1,4,1.82,4.24,4.24,0,0,1,1.36,3.78,13.2,13.2,0,0,1-1.54,4.88,22.85,22.85,0,0,1-3.25,4.63,27.58,27.58,0,0,1-4.18,3.78,15.14,15.14,0,0,1-4.35,2.31,14.24,14.24,0,0,1-6.05.53,16.83,16.83,0,0,1-5.82-1.83c-1.25,2.94-2.44,5.7-3.55,8.27s-2.24,5.5-3.39,8.79a1.76,1.76,0,0,0-.16.43,1.38,1.38,0,0,1-.15.43,10.56,10.56,0,0,1-.59,1.8c-.22.52-.39,1-.52,1.41a3.16,3.16,0,0,1-.73,1.95c-.08.14-.31.54-.69,1.16s-.65.9-.8.82a1.16,1.16,0,0,1-.07-.55,1.38,1.38,0,0,0-.08-.55c.13-.8.3-1.62.49-2.44a22,22,0,0,0,.43-2.62q1.62-8.32,3.27-16.58t3.27-16.59q.88-3.9,1.58-7.56t1.57-7.56l3.17-15.69q2.25-11.21,4.52-22.42t4.47-22.6c.42-1.91.81-3.85,1.16-5.8s.72-3.95,1.11-6a10,10,0,0,0,.28-1.24q.11-.6.24-1.41-1.77,7.25-3.4,14.33t-3.27,14.11a15.85,15.85,0,0,1-1.33,2.51,3.18,3.18,0,0,1-.56.65c-.3.28-.38.22-.26-.2.43-1.92.86-3.81,1.31-5.66s.88-3.75,1.3-5.66q1.15-5,2.35-10T416,133.69c.42-1.91.87-3.87,1.34-5.86s1-4,1.68-6c.25-.84.52-1.62.8-2.35A8.47,8.47,0,0,1,421.08,117.4Zm-14.48,113c-.41.76-.78,1.42-1.11,2s-.71,1.2-1.11,2a16.49,16.49,0,0,0,5.9,2.09,13.39,13.39,0,0,0,6.07-.44,18.24,18.24,0,0,0,4.17-2A13.33,13.33,0,0,0,424,231l.12-.23a.16.16,0,0,1,.12-.22l.24-.46c0,.12.12.06.24-.17l-.06.11a.15.15,0,0,1,.12-.22l.12-.23.12-.23a.16.16,0,0,0-.12.23c0,.12.1-.1.18-.63q.25-1,.42-2a3.22,3.22,0,0,0-.33-2,4,4,0,0,0-1.55-1.62,15.18,15.18,0,0,0-2.14-1.06,8.86,8.86,0,0,0-5.67.23,13.63,13.63,0,0,0-4.9,2.66,1.24,1.24,0,0,1-.77.62,13.44,13.44,0,0,1-1.15,1.51c-.34.36-.65.7-.92,1.05l-.24.45a6.91,6.91,0,0,0-.78,1.2c-.12,0-.16.08-.15.14s0,.1-.14.14a.17.17,0,0,0,.12-.23l-.12.23A.17.17,0,0,1,406.6,230.43Zm14.87-112.38-.05-.18C421.53,117.84,421.55,117.9,421.47,118.05Z"/><path class="cls-1" d="M490.17,199.19l.05.18a5.22,5.22,0,0,1-.84,1.88,5.6,5.6,0,0,1-1.19,1.42q-5,3.65-9.76,7t-9.82,6.86q-4.74,3.19-9.61,6.32a98.48,98.48,0,0,1-10.16,5.73q-1.17.56-2.28,1c-.74.29-1.57.58-2.5.87q-.87.27-1.86.48a4.61,4.61,0,0,1-2,0,1.84,1.84,0,0,1-1.25-1.91,12.4,12.4,0,0,1,.31-2.39,10.37,10.37,0,0,1,1.17-3.61.41.41,0,0,1,0-.29.34.34,0,0,0,0-.28,1,1,0,0,0,.33-.49,1,1,0,0,1,.33-.48c.45-1,1.05-2.27,1.81-3.72a49.31,49.31,0,0,1,2.58-4.33,48.72,48.72,0,0,1,2.88-3.95,11.33,11.33,0,0,1,2.74-2.57,1.22,1.22,0,0,0,.5-.25.64.64,0,0,1,.55-.07c.42.12.75.59,1,1.4a7.8,7.8,0,0,1,0,4.39,17.79,17.79,0,0,1-1.89,4.41,14.2,14.2,0,0,1-3.08,3.63,10.79,10.79,0,0,1-3.74,2.11,10.11,10.11,0,0,1-1.5.37c-.43.07-.95.14-1.57.2a7.91,7.91,0,0,0-.26,1.32,3,3,0,0,0,.09,1.22l-.06.4.1.35a2.24,2.24,0,0,0,2.06,1.08,5.36,5.36,0,0,0,1.62-.31A2.67,2.67,0,0,0,446,227a22.73,22.73,0,0,0,3.73-1.54l3.62-1.88a45.35,45.35,0,0,0,4.5-2.45q2.16-1.33,4.39-2.79,7.2-4.51,14-9.31T490.17,199.19ZM443,219c0,.11,0,.32-.19.63a18.34,18.34,0,0,0,1.83-.28,17.64,17.64,0,0,0,1.77-.45,10.18,10.18,0,0,0,4.09-2.22l.12-.23.07-.41.12-.22.12-.23a4.34,4.34,0,0,0,.17-1.3,4,4,0,0,1,.17-1.29,6.5,6.5,0,0,0-.09-1.22,2.3,2.3,0,0,0-.67-1.22c-.07-.24-.3-.36-.68-.37l-.18.06a3,3,0,0,0-.81.44l-.18.06a1.06,1.06,0,0,1-.59.56,2.12,2.12,0,0,1-.41.51l-.66,1a10.64,10.64,0,0,0-1.06,1.19,9.09,9.09,0,0,0-.84,1.31q-.24.47-.33.48c-.06,0-.13.11-.21.26-.24.46-.51.92-.8,1.4A8.16,8.16,0,0,0,443,219Zm.54-.74a.34.34,0,0,0-.24.17C443.24,218.48,443.32,218.42,443.52,218.23Z"/><path class="cls-1" d="M494.84,199.47l2.2-.3a5.63,5.63,0,0,1,2.13.1,4.1,4.1,0,0,1,1.52.58,1.4,1.4,0,0,1,.63,1.43,2.26,2.26,0,0,1-.21,1.78,37,37,0,0,0-.47,4.64,17.58,17.58,0,0,0,.5,4.72,7.41,7.41,0,0,0,.44,1.1,1.35,1.35,0,0,0,.91.77c.15.09.46.05.92-.09a11.7,11.7,0,0,0,3.33-1.89,47.47,47.47,0,0,0,3.94-3.33c1.34-1.24,2.61-2.46,3.84-3.67s2.16-2.16,2.83-2.88l2.18-2.2,6.36-7.23,6.36-7.23.13-.22.34-.11a.23.23,0,0,1,.11.35.56.56,0,0,1-.29.28,18.41,18.41,0,0,1-2.36,3.5c-1.36,1.76-3,3.77-4.92,6s-4,4.6-6.42,7.06-4.64,4.75-6.84,6.89-4.24,4-6.12,5.53a15.09,15.09,0,0,1-4.39,2.79,1.62,1.62,0,0,1-2.29-1.2,4.37,4.37,0,0,1-.51-1.66c-.05-.56-.1-1.14-.16-1.76a28.23,28.23,0,0,1,.43-6.63.36.36,0,0,1,0-.29.36.36,0,0,0,0-.29,3.83,3.83,0,0,0,.2-1.21,1.44,1.44,0,0,0-.63-1.43,4.35,4.35,0,0,0-1.52-.58,23.65,23.65,0,0,0-4.69.31l-2.28.32a14.39,14.39,0,0,1-2.34.16c-1.51.08-2.34-.55-2.5-1.9a6.18,6.18,0,0,1,.45-2.54,23.39,23.39,0,0,1,1.4-3.2,15.53,15.53,0,0,1,1.82-2.76,4.16,4.16,0,0,1,1.68-1.38c.23-.07.36-.05.4.07a.35.35,0,0,1,.33.47,1.56,1.56,0,0,0,0,.75,6.58,6.58,0,0,1-.63,3.54,21.24,21.24,0,0,1-1.88,3.16,1.88,1.88,0,0,0,.74.25,5,5,0,0,1,.69.07,9.2,9.2,0,0,0,2.32-.24C493.35,199.71,494.11,199.57,494.84,199.47Z"/><path class="cls-1" d="M603.34,163.57c.43-.26.57-.21.43.15s-.26.62-.34.77a7.11,7.11,0,0,1-1.55,2.39q-5.89,5.66-11.73,11.18t-11.73,11.18l.28.88a76.1,76.1,0,0,1-1.46,19.36,146.15,146.15,0,0,1-5.57,20.27,153.34,153.34,0,0,1-8.41,19.42,157.72,157.72,0,0,1-9.86,16.62q-2.49,3.63-6.8,8.89t-9.25,10.22a100.81,100.81,0,0,1-10.21,9,31.87,31.87,0,0,1-9.61,5.37,9.47,9.47,0,0,1-6.07.15q-2.58-.92-3.94-4.7a18.48,18.48,0,0,1-1.38-8.17,42.14,42.14,0,0,1,4.34-15.29,128.67,128.67,0,0,1,10.19-17.68q6.23-9.19,14-18.47T550,217.36q7.59-8.48,14.47-15.57T576,190a20.77,20.77,0,0,0-.59-3.45,13.36,13.36,0,0,0-1.28-3.23c-1.25-2.8-2.91-4.54-5-5.24a11.67,11.67,0,0,0-7.28.25,27.27,27.27,0,0,0-4.25,1.69c-1.32.67-2.69,1.41-4.09,2.23a18.08,18.08,0,0,1,2.23,1c.15.09.12.32-.08.7l-.66,1.25a7.53,7.53,0,0,1-.77,1.2c-.28.34-.5.47-.65.39a14,14,0,0,0-2.2-.94c-.71-.23-1.42-.48-2.15-.77a1.66,1.66,0,0,1-.38.31,1.47,1.47,0,0,0-.38.31q-4.11,2.81-7.83,5.86t-7.61,6a31,31,0,0,1-2.85,2.22c-1,.69-2,1.31-3,1.87a5,5,0,0,0-.85.36,6.39,6.39,0,0,1-1,.41,2.22,2.22,0,0,1-1.73,0,2.11,2.11,0,0,1-.7-2.27,13.57,13.57,0,0,1,1.68-5.68,30.11,30.11,0,0,1,8.79-10.17,18,18,0,0,1,5.17-2.75,20,20,0,0,1,6.22-.87,28.13,28.13,0,0,1,6.37.79q3-2.07,6.06-3.88a30.54,30.54,0,0,1,6.55-2.89q5.4-1.66,8.6.3c2.13,1.32,3.71,3.66,4.76,7a12,12,0,0,1,.86,2.79,24,24,0,0,1,.34,3q6.13-6.09,12.39-12.15T603.34,163.57Zm-41.11,86.3q3.07-6.12,5.89-13.39a139.6,139.6,0,0,0,4.82-15,128.13,128.13,0,0,0,3-15.47,60.83,60.83,0,0,0,.31-14.43q-11.92,12.1-23.53,24.3a312.91,312.91,0,0,0-21.94,25.71l-1,1.08c-.47.53-.65.77-.53.74q-1.78,2.27-3.39,4.49l-3.21,4.43a2.15,2.15,0,0,0-.42.51,2.07,2.07,0,0,1-.41.51c-.24.46-.42.7-.54.74a19,19,0,0,1-1.43,2.16,16.87,16.87,0,0,1-1.26,2.11l-.65,1c-.24.46-.42.7-.54.74l-1.08,2.05c-.44.65-.91,1.4-1.41,2.26a16.13,16.13,0,0,0-1.17,2.37l-.24.45a61.63,61.63,0,0,0-4,9.36,22.78,22.78,0,0,0-.88,10.11,14.69,14.69,0,0,0,1.61,5.81c1,2,2.31,3.14,3.94,3.46a10.54,10.54,0,0,0,5.23-.38,31.09,31.09,0,0,0,9.32-5.08,92.29,92.29,0,0,0,9.56-8.31,120.93,120.93,0,0,0,8.55-9.43q3.93-4.86,6.5-8.32a1.71,1.71,0,0,1,.47-.63,1.87,1.87,0,0,0,.48-.62,2.71,2.71,0,0,1,.53-.74,3.15,3.15,0,0,0,.54-.74,5.56,5.56,0,0,1,.51-.83,7.73,7.73,0,0,0,.5-.82l.37-.69c.15-.3.29-.47.41-.51q.48-.92.93-1.62c.3-.48.61-1,.93-1.63l.24-.46a1.54,1.54,0,0,1,.27-.37,1.87,1.87,0,0,0,.27-.36,6,6,0,0,1,.84-1.6l.84-1.6.24-.46.36-.68ZM545,186.05c.31-.23.65-.46,1-.7s.72-.48,1-.7a.55.55,0,0,0-.4-.07.49.49,0,0,1-.41-.07,20.76,20.76,0,0,0-9.59.49,18.29,18.29,0,0,0-9.26,6.5q-.66,1-.78,1.2a2.33,2.33,0,0,1-.41.51l-.12.23a.16.16,0,0,1-.12.22.17.17,0,0,1-.12.23,2.46,2.46,0,0,1-.13.52,2.46,2.46,0,0,0-.13.52,9.64,9.64,0,0,0-.4,2.41A1.39,1.39,0,0,0,526.6,199a14.3,14.3,0,0,0,4.14-2.05,89.39,89.39,0,0,0,7.25-5.3Q541.42,188.87,545,186.05Z"/></svg>